<?xml version="1.0" encoding="UTF-8"?><svg id="Layer_1" xmlns="http://www.w3.org/2000/svg" viewBox="0 0 175.79 270.15"><defs><style>.cls-1{fill:none;stroke:#00703c;stroke-width:2.96px;}.cls-2,.cls-3{fill-rule:evenodd;}.cls-2,.cls-3,.cls-4,.cls-5,.cls-6,.cls-7{stroke-width:0px;}.cls-2,.cls-7{fill:#00703c;}.cls-3,.cls-5{fill:#ffea53;}.cls-4{fill:#fff;}.cls-6{fill:#fff9dc;}</style></defs><path class="cls-4" d="m153.61,5.32c0-2.12-1.73-3.84-3.87-3.84H5.35c-2.14,0-3.87,1.72-3.87,3.84v259.51c0,2.12,1.73,3.84,3.87,3.84h144.39c2.14,0,3.87-1.72,3.87-3.84V5.32Z"/><rect class="cls-6" x="10.84" y="62.25" width="132" height="142"/><path class="cls-2" d="m127.6,63.16c3.96,0,6.12,4.48,6.12,6,0,4.13-5.42,6.07-5.48,10.93-.04,3.83,3.22,4.44,3.22,9.17,0,10.51-18.05,11.07-18.05,19.04,0,2.15,2.29,3.17,4.19,3.17,5.87,0,14.05-2.82,17.72-2.82,4.77,0,7.73,2.5,7.73,6.7,0,6.14-4.61,5.93-5.8,8.11-.97,1.8-1.21,8.82-8.38,8.82h-7.41c-1.03,0-5.06-1.34-7.73-1.41-9.67-.35-5.9,0-7.73,0-2.93,0-8.08-.32-8.08,3.2,0,.71,1.91,2.53,2.84,2.53.35,0,.6-.1.95-.03l.09-.06c.71,0,8.15-2.12,9.67-2.12h3.54c4.77,0,11.6,3.12,11.6,9.17v4.58c0,9.98-9.05,17.63-14.18,17.63-8.28,0-18.37-7.4-24.17-7.4-3.48,0-9.35,5.08-9.35,9.52,0,6.17,8.38,7.93,8.38,15.87,0,3.63-3.54,12.1-11.92,11.29,0,0-5.65-.2-9.19-.89-4.19-.82-4.19-4.23-10.47-3.34-12.54,1.77-17.56,13.57-40.28,12.69,2.22-1.62,3.87-4.48,3.87-7.76,0-7.69-8.06-17.63-8.06-22.22s9.34-3.88,9.34-8.46c0-3.81-8.7-14.21-8.7-20.1,0-4.69,2.55-6.7,5.8-6.7,4.87,0,9.15,5.64,14.82,5.64,3.58,0,4.19-4.8,4.19-5.99,0-4.79-9.34-19.11-9.34-25.04,0-8.46,7.51-9.03,9.34-15.87,2.06-7.72,5.32-11.14,10.96-10.93,14.01.53,7.89,29.09,14.82,29.27,2.64.07,4.19-6.35,4.19-20.8v-4.58c0-2.97,2.42-13.4,7.73-13.4h3.54c6.29,0,8.8-8.46,13.54-8.46,3.03,0,4.83,2.5,4.83,5.64,0,5.64-5.8,12.45-5.8,15.16,0,1.02,1,2.67,1.93,2.12,12.08-7.23,5.15-15.52,16.27-23.63,1.31-.96,7,1.41,7.26,1.41,2.42,0,4.74-5.64,11.6-5.64h0Z"/><path class="cls-3" d="m71.59,77.74h3.54c1.59,0,2.94-.54,4.14-1.35-.42.08-.85.14-1.31.14h-3.54c-1.12,0-2.1.46-2.97,1.22.05,0,.1,0,.14,0Z"/><path class="cls-3" d="m15.1,169.58c-.35.15-.69.3-1.02.47.35-.15.69-.31,1.02-.47Z"/><path class="cls-3" d="m88.69,69.3c3.03,0,4.83,2.5,4.83,5.64,0,5.64-5.8,12.45-5.8,15.16,0,1.02,1.35,2.89,2.29,2.33.71-.42,1.71-.93,2.3-1.36-.58-.39-1.73-1.48-1.73-2.17,0-2.72,5.8-9.53,5.8-15.17,0-3.14-1.8-5.66-4.83-5.66-1.14,0-2.22.5-3.19,1.25.1,0,.23-.03.33-.03Z"/><path class="cls-3" d="m113.18,70.01c.76,0,2.24-.47,3.13-1.24-1.37-.48-6.42-2.23-7.59-1.4-.47.33-.89.68-1.29,1.02,2.16.22,5.55,1.62,5.75,1.62Z"/><path class="cls-3" d="m44.86,87.29c14.01.53,7.89,29.09,14.82,29.27.72.02,1.36-.47,1.91-1.45-5.46-2.68-.54-28.59-13.87-29.09-2.19-.08-4.11.45-5.65,1.51.84-.19,1.81-.27,2.79-.23Z"/><path class="cls-3" d="m14.9,139.41c4.87,0,9.15,5.64,14.82,5.64,1.16,0,2-.5,2.62-1.22-5.56-.14-9.81-5.63-14.61-5.63-1.46,0-2.78.41-3.79,1.28.31-.04.63-.07.96-.07Z"/><path class="cls-3" d="m135.46,108.48c-3.67,0-11.89,2.95-17.76,2.95-1.9,0-4.2-.99-4.2-3.14,0-7.97,18.05-8.53,18.05-19.04,0-4.73-3.27-5.34-3.22-9.17.05-4.86,5.48-6.81,5.48-10.93,0-1.52-2.16-6-6.12-6-2.4,0-3.88.44-5.37,1.34.87-.23,1.47-.13,2.55-.13,3.96,0,6.12,4.48,6.12,6,0,4.13-5.42,6.07-5.48,10.93-.04,3.83,3.22,4.44,3.22,9.17,0,10.51-18.05,11.07-18.05,19.04,0,2.15,2.29,3.17,4.19,3.17,5.87,0,14.05-2.82,17.72-2.82,4.77,0,7.73,2.5,7.73,6.7,0,6.14-4.61,5.93-5.8,8.11-.7,1.3-1.02,5.32-3.84,7.46,5.5-1.03,5.78-7.03,6.66-8.67,1.19-2.19,5.8-1.97,5.8-8.11,0-4.2-2.92-6.86-7.69-6.86Z"/><path class="cls-3" d="m115.06,134.35h-3.62c-1.52.01-8.92,2.14-9.62,2.14-.42.06-.6.02-.95.02-.93,0-2.9-1.76-2.9-2.47,0-.78.26-1.35.68-1.8-1.91.29-3.5,1.05-3.5,3.01,0,.71,1.99,2.27,2.9,2.47.32.07.46.12.97,0,.97-.24,8.15-2.12,9.67-2.12h3.54c4.77,0,11.6,3.12,11.6,9.17v4.58c0,7.37-4.94,13.5-9.59,16.18,5.19-1.4,12.45-8.48,12.45-17.39v-4.58c0-6.04-6.84-9.21-11.61-9.21Z"/><path class="cls-3" d="m84.63,159.69c-3.5.72-8.45,5.33-8.45,9.41,0,6.17,8.38,7.93,8.38,15.87,0,2.52-1.71,7.35-5.54,9.82,5.63-1.27,8.37-7.96,8.37-11.03,0-7.93-8.38-9.7-8.38-15.87,0-3.05,2.77-6.4,5.63-8.2Z"/><path class="cls-6" d="m77.66,96.66v9.52c0,.11-.9,5.15-2.9,9.52.26-1.16.97-2.54.97-4.23v-10.23c0-2.19.71-8.78,3.54-12.34-.26.77-1.61,6.38-1.61,7.76h0Z"/><path class="cls-6" d="m44.47,100.53c1.9,6.31,1.41,5.11,1.93,8.46.85,5.43.09,8.63.64,14.11.83,8.23,3.87,10.72,3.87,20.8v1.06c0-7.51-5.67-17.63-5.8-23.63,0,0,.45-17.77-.64-20.81h0Z"/><path class="cls-6" d="m129.54,118.17c-.68.18-6.96,4.23-13.54,4.23-1.68,0-2.48.25-4.19,0,0,0-5-1.62-8.38-1.76-2.06-.07-4.95-.16-8.06.35-1.78.29-2.42,1.41-4.51,1.06,2.13-.56,5.18-2.4,8.7-2.82,2.12-.25,5.48,0,5.48,0,1.03,0,3.26,1.06,6.77,1.06,3.19,0,5.8-.14,7.09,0,6.45.71,7.6-2.12,10.63-2.12h0Z"/><path class="cls-6" d="m86.36,143.2c2.13,0,3.34-.09,5.48,0,7.93.35,12.34,4.23,19.98,4.23-.84,0-4.38-.04-5.48,0-4.96.14-12.34-2.82-16.76-2.82h-5.48c-3.83,0-10.05,2.33-12.24,2.12,1.29-.21,8.02-3.53,14.5-3.53h0Z"/><path class="cls-6" d="m32.55,176.35v1.76c0-8.07-5.99-21.47-7.41-23.27,5.77,7.23,7.41,16.15,7.41,21.51h0Z"/><path class="cls-6" d="m58.65,172.82h5.16c.19,0,5.03,1.48,5.8,1.76,0,0-5.89-.94-9.67-.71-3.18.2-4.98.51-8.06,1.41,0,0,5.03-2.47,6.77-2.47h0Z"/><path class="cls-6" d="m101.01,104.23c-6.45,5.47-22.62,22.05-30.77,33.5-8.54,11.99-13.69,20.45-13.69,20.45-17.08,31.03-26.9,34.03-26.9,34.03,17.4-19.75,18.53-24.86,33.35-48.48,3.87-6.17,13.21-18.34,20.79-26.97,9.02-10.27,17.22-13.89,27.07-24.68,4.5-4.94,6.76-8.82,8.53-13.93-.48,3.53,1.36,4.48-6.77,14.63-2.29,2.89-6.35,7.01-11.6,11.46h0Z"/><path class="cls-1" d="m153.61,5.32c0-2.12-1.73-3.84-3.87-3.84H5.35c-2.14,0-3.87,1.72-3.87,3.84v259.51c0,2.12,1.73,3.84,3.87,3.84h144.39c2.14,0,3.87-1.72,3.87-3.84V5.32Z"/><path class="cls-7" d="m143.98,7.48H11.12c-1.97,0-3.56,1.64-3.56,3.65v247.06c0,2.02,1.6,3.66,3.56,3.66h132.85c1.97,0,3.56-1.64,3.56-3.66V11.14c0-2.02-1.59-3.65-3.56-3.65Zm-2.69,189.25c0,1.99-1.62,3.61-3.61,3.61H17.26c-1.99,0-3.61-1.62-3.61-3.61V68.15c0-1.99,1.62-3.61,3.61-3.61h120.42c1.99,0,3.61,1.62,3.61,3.61v128.59Z"/><path class="cls-5" d="m28.26,32.17c-1.45.5-3.11.76-5.31.76-5.93,0-8.78-4.26-8.78-10.22,0-5.18,1.78-8.99,8.12-8.99,2.37,0,4.39.45,5.69.78l.27,4.4h-.74c-.39-1.57-1.57-4.09-5.25-4.09-4.77,0-5.16,4.79-5.16,7.67,0,3.61.83,9.18,7.32,9.18,1.99,0,3.05-.42,3.82-.7v1.2Z"/><path class="cls-5" d="m29.71,32.08c1.6,0,2.58-.2,2.58-2.3v-12.94c0-2.1-.98-2.3-2.58-2.3v-.56h13.43l.21,3.42h-.74c-.36-1.71-1.33-2.32-3.44-2.32h-2.61c-1.54,0-1.63.31-1.63,2.35v4.9h3.82c1.99,0,2.7-.42,2.7-2.35h.62v5.8h-.62c0-1.57-.71-2.35-2.7-2.35h-3.82v5.77c0,2.18.15,2.35,1.63,2.35h2.85c2.28,0,3.2-.67,3.65-2.6h.74l-.21,3.7h-13.87v-.56Z"/><path class="cls-5" d="m50.49,16.93c0-1.51.15-1.85,1.93-1.85,2.37,0,4.57.81,4.57,3.19,0,3.5-3.05,3.81-6.49,3.81v-5.15Zm-5.22,15.71h7.83v-.56c-1.63,0-2.61-.2-2.61-2.3v-6.61h1.22l5.93,9.46h4.51v-.56c-1.87,0-2.7-1.32-3.65-2.83l-3.91-6.27c2.1-.17,5.19-1.12,5.19-4.7s-3.44-4.28-6.64-4.28h-7.86v.56c1.63,0,2.58.2,2.58,2.3v12.94c0,2.1-.95,2.3-2.58,2.3v.56Z"/><path class="cls-5" d="m64.51,32.08c1.78,0,2.85-.2,2.85-2.3v-14.7h-1.81c-3.02,0-3.47,1.15-3.77,2.72h-.74l.21-3.81h14.85l.21,3.81h-.74c-.18-1.76-1.07-2.72-3.97-2.72h-1.6v14.7c0,2.1,1.07,2.3,2.85,2.3v.56h-8.33v-.56Z"/><path class="cls-5" d="m77.77,32.08c1.63,0,2.58-.2,2.58-2.3v-12.94c0-2.1-.95-2.3-2.58-2.3v-.56h7.8v.56c-1.6,0-2.58.2-2.58,2.3v12.94c0,2.1.98,2.3,2.58,2.3v.56h-7.8v-.56Z"/><path class="cls-5" d="m85.65,32.08c1.6,0,2.58-.2,2.58-2.3v-12.94c0-2.1-.98-2.3-2.58-2.3v-.56h13.43l.21,3.42h-.74c-.53-1.82-1.45-2.32-3.44-2.32h-2.61c-1.54,0-1.63.31-1.63,2.35v4.9h3.82c1.99,0,2.7-.42,2.7-2.35h.62v5.8h-.62c0-1.57-.71-2.35-2.7-2.35h-3.82v6.36c0,2.1,1.01,2.3,2.93,2.3v.56h-8.15v-.56Z"/><path class="cls-5" d="m100.77,32.08c1.63,0,2.58-.2,2.58-2.3v-12.94c0-2.1-.95-2.3-2.58-2.3v-.56h7.8v.56c-1.6,0-2.58.2-2.58,2.3v12.94c0,2.1.98,2.3,2.58,2.3v.56h-7.8v-.56Z"/><path class="cls-5" d="m108.66,32.08c1.6,0,2.58-.2,2.58-2.3v-12.94c0-2.1-.98-2.3-2.58-2.3v-.56h13.43l.21,3.42h-.74c-.36-1.71-1.33-2.32-3.44-2.32h-2.61c-1.54,0-1.63.31-1.63,2.35v4.9h3.82c1.99,0,2.7-.42,2.7-2.35h.62v5.8h-.62c0-1.57-.71-2.35-2.7-2.35h-3.82v5.77c0,2.18.15,2.35,1.63,2.35h2.85c2.28,0,3.2-.67,3.65-2.6h.74l-.21,3.7h-13.87v-.56Z"/><path class="cls-5" d="m129.53,17.44c0-2.18.24-2.35,1.72-2.35,5.63,0,7.21,3.11,7.21,8.26,0,5.63-2.11,8.2-7.21,8.2-1.48,0-1.72-.31-1.72-2.35v-11.76Zm-5.22,15.2h6.94c4.65,0,10.14-.98,10.14-9.3s-5.22-9.35-10.14-9.35h-6.94v.56c1.6,0,2.58.2,2.58,2.3v12.94c0,2.1-.98,2.3-2.58,2.3v.56Z"/><path class="cls-5" d="m24.22,41.82l3.29,8.54h-6.61l3.32-8.54Zm-9.96,15.82h6.7v-.56c-1.16,0-2.1-.17-2.1-.98,0-.36.18-.81.36-1.32l1.27-3.33h7.44l1.39,3.53c.12.31.27.81.27,1.18,0,.73-1.19.92-2.1.92v.56h7.71v-.56c-1.93,0-2.7-1.12-3.41-2.88l-6.17-15.48h-1.66l-6.14,15.26c-.86,2.16-1.25,3.11-3.56,3.11v.56Z"/><path class="cls-5" d="m39.55,41.93c0-1.51.15-1.85,1.93-1.85,2.37,0,4.57.81,4.57,3.19,0,3.5-3.05,3.81-6.49,3.81v-5.15Zm-5.22,15.71h7.83v-.56c-1.63,0-2.61-.2-2.61-2.3v-6.61h1.22l5.93,9.46h4.51v-.56c-1.87,0-2.7-1.32-3.65-2.83l-3.91-6.27c2.1-.17,5.19-1.12,5.19-4.7s-3.44-4.28-6.64-4.28h-7.86v.56c1.63,0,2.58.2,2.58,2.3v12.94c0,2.1-.95,2.3-2.58,2.3v.56Z"/><path class="cls-5" d="m56.81,42.44c0-2.1.21-2.35,2.08-2.35,2.4,0,4.36.76,4.36,3.58,0,3.56-3.35,3.58-5.07,3.58h-1.36v-4.82Zm0,5.91h1.36c2.52,0,6.08.25,6.08,4.28,0,3-2.49,3.92-4.92,3.92s-2.52-.25-2.52-2.35v-5.85Zm-5.22,9.3h7.74c2.99,0,7.71-.39,7.71-5.01,0-3.42-2.43-4.56-4.51-4.9v-.06c1.39-.42,3.5-1.37,3.5-4.2,0-4.48-4.86-4.48-7.14-4.48h-7.29v.56c1.6,0,2.58.2,2.58,2.3v12.94c0,2.1-.98,2.3-2.58,2.3v.56Z"/><path class="cls-5" d="m72.43,48.32c0-4.31.47-8.51,4.71-8.51s4.71,4.2,4.71,8.51-.47,8.51-4.71,8.51-4.71-4.2-4.71-8.51Zm4.71,9.6c5.9,0,7.65-4.17,7.65-9.6s-1.75-9.6-7.65-9.6-7.65,4.14-7.65,9.6,1.75,9.6,7.65,9.6Z"/><path class="cls-5" d="m90.54,41.93c0-1.51.15-1.85,1.93-1.85,2.37,0,4.57.81,4.57,3.19,0,3.5-3.05,3.81-6.49,3.81v-5.15Zm-5.22,15.71h7.83v-.56c-1.63,0-2.61-.2-2.61-2.3v-6.61h1.22l5.93,9.46h4.51v-.56c-1.87,0-2.7-1.32-3.65-2.83l-3.91-6.27c2.11-.17,5.19-1.12,5.19-4.7s-3.44-4.28-6.64-4.28h-7.86v.56c1.63,0,2.58.2,2.58,2.3v12.94c0,2.1-.95,2.3-2.58,2.3v.56Z"/><path class="cls-5" d="m102.08,57.08c1.63,0,2.58-.2,2.58-2.3v-12.94c0-2.1-.95-2.3-2.58-2.3v-.56h7.8v.56c-1.6,0-2.58.2-2.58,2.3v12.94c0,2.1.98,2.3,2.58,2.3v.56h-7.8v-.56Z"/><path class="cls-5" d="m122.98,43.03c-.27-1.48-1.45-3.22-4.62-3.22-1.99,0-3.74,1.2-3.74,3.05,0,2.49,3.53,3.3,6.11,4.73,2.34,1.29,3.91,2.44,3.91,5.1,0,3.56-3.26,5.24-7.32,5.24-2.02,0-4.36-.42-5.1-.53l-.21-3.95h.74c.24,1.48,1.63,3.22,4.8,3.22,2.61,0,4.3-1.6,4.3-3.53,0-3.02-4.92-3.95-7.68-5.94-1.3-.95-1.93-1.96-1.93-3.75,0-3.36,2.94-4.73,6.67-4.73,1.99,0,3.26.22,4.59.48l.21,3.84h-.74Z"/><path class="cls-5" d="m129.14,57.08c1.78,0,2.85-.2,2.85-2.3v-14.7h-1.81c-3.02,0-3.47,1.15-3.76,2.72h-.74l.21-3.81h14.85l.21,3.81h-.74c-.18-1.76-1.07-2.72-3.97-2.72h-1.6v14.7c0,2.1,1.07,2.3,2.85,2.3v.56h-8.33v-.56Z"/><path class="cls-5" d="m52.63,218.42c0-4.95-.47-5.59-4.96-6.05v-1.4h14.65v1.4c-4.55.46-4.96,1.1-4.96,6.05v25.84c0,4.95.41,5.59,4.96,6v1.4h-14.65v-1.4c4.49-.4,4.96-1.05,4.96-6v-25.84Z"/><path class="cls-5" d="m63.71,240.72c.92,3.2,3.48,9.72,9.69,9.72,4.35,0,6.86-3.09,6.86-7.84s-3.07-7.3-7.07-9.65c-3.4-2-9.49-5.31-9.49-11.85,0-5.85,4.39-10.9,11.7-10.9,3.19,0,5.23.83,6.79,1.26.25,2.41.61,4.81,1.07,8.26l-1.57.32c-1.08-3.59-2.57-7.87-7.52-7.87-4.02,0-6.03,3.29-6.03,6.87,0,4.24,2.89,6.53,6.89,8.87,3.77,2.18,9.79,5.29,9.79,12.67,0,6.91-5.22,11.82-12.46,11.83-1.86,0-3.76-.31-4.98-.68-1.39-.4-2.63-.91-3.65-1.33-.54-1.85-.99-5.76-1.57-9.35l1.57-.34Z"/><path class="cls-3" d="m95.04,244.12h3.61c-.06-.59-.27-1.25-.35-2.06-.11-1.04-.35-2.94-.35-2.94,0,0-.37-.37-.66-1.51-.18-.71-.12-.71-.79-1.47-.67-.77-.99-.5-.99-.5l.32-.31-.66-.56s-.14-.13,1.06-.58c.54-.2,1,.11,1.04-.9.04-1-.82-.98-2.16-2.1-1.38-1.15-3.33-1.42-3.33-1.42,0,0,.58-.45.56-.94-.04-.8-1.59-1.76-1.63-1.85-.14-.25.61-.43,2.01-.34.41.02.31-.6.31-.6,0,0,.37-.09,1.26.69.69.61,1.81.3,1.86.09.32-1.54-.71-2.14-1.14-3.21-.43-1.07-.95-1.94-.95-1.94,0,0,.46-.19.86-.69.39-.51-.34-1.7-.34-1.7,0,0,.29.22.39.23.1,0,.26-.23.26-.23,0,0,.25.51.93.99.69.49,1.02.59,1.44.31.83-.54-.67-2.43-.29-3.04.14-.24.16-.64.16-.64,0,0,.44.86,1.05.68.62-.18.43-1.5.62-2.21.17-.62.25-.3.29-.46l.17-.61s.15,0,.41.72c.14.39.13.11.38.61.17.34.41.92.64,1.31.32.54.78.58.78.58l-.04.35.17.22s-.2.17-.3,1c-.08.63-.22.93-.13,1.13.07.16,1.3-.13,1.3-.13l.03.39.34.26s.02.81-.49,1.24c-.81.68-.85.45-1.11,1.7-.26,1.25-.6,2.21-.52,2.32.09.11.97-.5,1.51-.89.54-.39,1.36-.86,1.36-.86,0,0-.11.79,0,.75,1.18-.31,1.97-.24,1.97-.24,0,0-1.04,2.3-1.06,2.58-.02.21.58,1.29.58,1.29,0,0-1.54.45-2.08.85-.54.39-.75.78-1.41,1.19-.65.41-.92.96-.97,2.16-.03.63.96,1.41.96,1.41,0,0-.03.21-1.01.69-.41.2-.13.33-.61.92-.28.35-.27.67-.89.9-.56.21-.68,2.38-.68,2.38,0,0,.18,2.03.31,2.96.11.78.21,1.46.37,2.03h2.65l1.26,7.61h9.62l-7.73-42.33h-12.07l-8.98,42.33h9.59l1.32-7.61Z"/><path class="cls-5" d="m113.69,250.42c0-.64.48-1.12,1.09-1.12s1.09.48,1.09,1.12-.48,1.12-1.09,1.12-1.09-.48-1.09-1.12Zm1.09,1.35c.73,0,1.36-.57,1.36-1.35s-.62-1.34-1.36-1.34-1.36.57-1.36,1.34.63,1.35,1.36,1.35Zm-.28-1.24h.27l.41.67h.26l-.44-.68c.23-.03.4-.15.4-.43,0-.3-.18-.44-.55-.44h-.59v1.55h.23v-.67Zm0-.2v-.48h.32c.16,0,.34.04.34.23,0,.24-.18.25-.38.25h-.28Z"/><path class="cls-5" d="m46.35,123.1c.13,1.26.31,2.37.52,3.41,1.65,5.73,4.05,12.82,4.05,18.45v-1.06c0-10.08-3.04-12.58-3.87-20.8-.55-5.48.21-8.68-.64-14.11-.52-3.29-.06-2.21-1.83-8.13.45,1.75,1.39,6.23,1.42,10.56.35,4.06-.11,7.07.36,11.68Z"/><path class="cls-5" d="m44.57,100.87c-.03-.12-.06-.24-.1-.33.04.12.07.22.1.33Z"/><path class="cls-5" d="m76.83,105.39s-.15.87-.44,2.12l-.25,3.18c0,1.69-1.12,3.85-1.37,5.02,2-4.37,2.9-9.41,2.9-9.52v-9.52c0-1.37,1.35-6.98,1.61-7.76-1.69,2.12-1.97,4.54-2.44,7.24v9.25Z"/><path class="cls-5" d="m62.31,172.82c.15,0,3.1.89,4.77,1.42,1.48.17,2.52.34,2.52.34-.77-.28-5.61-1.76-5.8-1.76h-1.49Z"/><path class="cls-5" d="m105.36,147.42c.34.02.66.02.98.01.25,0,.62-.01,1.06-.01-.75,0-1.5,0-2.04,0Z"/><path class="cls-5" d="m89.12,143.17c.38,0,.78.02,1.23.04,7.82.35,12.23,4.12,19.68,4.22.79,0,1.48,0,1.79,0-7.64,0-12.05-3.88-19.98-4.23-1.06-.05-1.89-.05-2.72-.04Z"/><path class="cls-5" d="m124.88,119.73c-2.59,1.21-6.42,2.67-10.37,2.67-.76,0-1.34.05-1.91.08,1.21.08,2.01-.08,3.4-.08,6.57,0,12.86-4.06,13.54-4.23-1.72,0-2.84.91-4.66,1.56Z"/><path class="cls-5" d="m101.01,104.23c5.25-4.45,9.31-8.57,11.6-11.46,8.12-10.16,6.28-11.11,6.77-14.63-.58,1.68-1.23,3.22-1.97,4.71-.59,1.95-2.14,4.74-6.28,9.92-2.29,2.89-6.35,7.01-11.6,11.46-6.45,5.47-22.62,22.05-30.77,33.5-8.54,11.99-13.69,20.45-13.69,20.45-11.39,20.7-19.55,28.92-23.73,32.1-.55.63-1.1,1.27-1.69,1.93,0,0,9.83-3,26.9-34.03,0,0,5.16-8.46,13.69-20.45,8.15-11.45,24.33-28.03,30.77-33.5Z"/><path class="cls-7" d="m165.01,269.79h-1.26v-6.39h-2.45v-1.1h6.19v1.1h-2.47v6.39Zm4.49,0h-1.16v-7.49h1.86l1.92,5.99,1.84-5.99h1.83v7.49h-1.16v-6.29l-1.95,6.29h-1.14l-2.05-6.39v6.39Z"/></svg>